<svg xmlns="http://www.w3.org/2000/svg" xmlns:xlink="http://www.w3.org/1999/xlink" id="svg" width="400" height="400" viewBox="0, 0, 400,400"><g id="svgg"><path id="path0" d="M176.800 106.000 C 176.800 106.220,176.344 106.400,175.787 106.400 C 175.231 106.400,174.671 106.670,174.545 107.000 C 174.418 107.330,174.019 107.606,173.657 107.613 C 172.828 107.629,171.600 108.543,171.600 109.144 C 171.600 109.395,171.407 109.600,171.171 109.600 C 170.638 109.600,169.600 110.610,169.600 111.129 C 169.600 111.341,169.330 111.618,169.000 111.745 C 168.670 111.871,168.400 112.341,168.400 112.787 C 168.400 113.234,168.220 113.600,168.000 113.600 C 167.780 113.600,167.600 114.050,167.600 114.600 C 167.600 115.222,167.373 115.600,167.000 115.600 C 166.581 115.600,166.400 116.022,166.400 117.000 C 166.400 117.770,166.220 118.400,166.000 118.400 C 165.749 118.400,165.600 121.000,165.600 125.400 C 165.600 129.800,165.749 132.400,166.000 132.400 C 166.220 132.400,166.400 132.850,166.400 133.400 C 166.400 134.022,166.627 134.400,167.000 134.400 C 167.373 134.400,167.600 134.778,167.600 135.400 C 167.600 135.950,167.780 136.400,168.000 136.400 C 168.220 136.400,168.400 136.670,168.400 137.000 C 168.400 137.330,168.593 137.600,168.829 137.600 C 169.382 137.600,170.400 138.618,170.400 139.171 C 170.400 139.407,170.670 139.600,171.000 139.600 C 171.330 139.600,171.600 139.780,171.600 140.000 C 171.600 140.220,172.050 140.400,172.600 140.400 C 173.222 140.400,173.600 140.627,173.600 141.000 C 173.600 141.497,174.356 141.600,178.000 141.600 C 181.644 141.600,182.400 141.497,182.400 141.000 C 182.400 140.627,182.778 140.400,183.400 140.400 C 183.950 140.400,184.400 140.220,184.400 140.000 C 184.400 139.780,184.850 139.600,185.400 139.600 C 186.022 139.600,186.400 139.373,186.400 139.000 C 186.400 138.670,186.593 138.400,186.829 138.400 C 187.382 138.400,188.400 137.382,188.400 136.829 C 188.400 136.593,188.670 136.400,189.000 136.400 C 189.330 136.400,189.600 136.059,189.600 135.642 C 189.600 135.225,190.047 134.460,190.593 133.942 C 191.139 133.424,191.589 132.606,191.593 132.124 C 191.597 131.642,191.780 131.136,192.000 131.000 C 192.220 130.864,192.400 130.063,192.400 129.219 C 192.400 128.225,192.611 127.605,193.000 127.455 C 193.491 127.267,193.600 126.276,193.600 122.000 C 193.600 117.724,193.491 116.733,193.000 116.545 C 192.630 116.403,192.400 115.795,192.400 114.957 C 192.400 114.211,192.220 113.600,192.000 113.600 C 191.780 113.600,191.600 113.150,191.600 112.600 C 191.600 111.978,191.373 111.600,191.000 111.600 C 190.670 111.600,190.400 111.254,190.400 110.831 C 190.400 109.835,188.165 107.600,187.169 107.600 C 186.746 107.600,186.400 107.330,186.400 107.000 C 186.400 106.627,186.022 106.400,185.400 106.400 C 184.850 106.400,184.400 106.220,184.400 106.000 C 184.400 105.761,182.867 105.600,180.600 105.600 C 178.333 105.600,176.800 105.761,176.800 106.000 M223.600 106.000 C 223.600 106.220,222.903 107.142,222.050 108.050 C 221.197 108.958,219.847 110.397,219.050 111.250 C 218.253 112.103,217.600 112.980,217.600 113.200 C 217.600 113.420,217.407 113.600,217.171 113.600 C 216.618 113.600,215.600 114.618,215.600 115.171 C 215.600 115.407,215.407 115.600,215.171 115.600 C 214.618 115.600,213.600 116.618,213.600 117.171 C 213.600 117.407,213.407 117.600,213.171 117.600 C 212.618 117.600,211.600 118.618,211.600 119.171 C 211.600 119.407,211.407 119.600,211.171 119.600 C 210.618 119.600,209.600 120.618,209.600 121.171 C 209.600 121.407,209.407 121.600,209.171 121.600 C 208.936 121.600,208.486 121.857,208.171 122.171 C 207.857 122.486,207.600 122.936,207.600 123.171 C 207.600 123.407,207.407 123.600,207.171 123.600 C 206.618 123.600,205.600 124.618,205.600 125.171 C 205.600 125.407,205.407 125.600,205.171 125.600 C 204.936 125.600,204.486 125.857,204.171 126.171 C 203.857 126.486,203.600 126.936,203.600 127.171 C 203.600 127.407,203.407 127.600,203.171 127.600 C 202.936 127.600,202.486 127.857,202.171 128.171 C 201.857 128.486,201.600 128.936,201.600 129.171 C 201.600 129.407,201.407 129.600,201.171 129.600 C 200.936 129.600,200.486 129.857,200.171 130.171 C 199.857 130.486,199.600 130.936,199.600 131.171 C 199.600 131.407,199.407 131.600,199.171 131.600 C 198.936 131.600,198.486 131.857,198.171 132.171 C 197.857 132.486,197.600 132.936,197.600 133.171 C 197.600 133.407,197.407 133.600,197.171 133.600 C 196.936 133.600,196.486 133.857,196.171 134.171 C 195.857 134.486,195.600 134.936,195.600 135.171 C 195.600 135.407,195.407 135.600,195.171 135.600 C 194.936 135.600,194.486 135.857,194.171 136.171 C 193.857 136.486,193.600 136.936,193.600 137.171 C 193.600 137.407,193.407 137.600,193.171 137.600 C 192.936 137.600,192.486 137.857,192.171 138.171 C 191.857 138.486,191.600 138.936,191.600 139.171 C 191.600 139.407,191.407 139.600,191.171 139.600 C 190.936 139.600,190.486 139.857,190.171 140.171 C 189.857 140.486,189.600 140.936,189.600 141.171 C 189.600 141.407,189.407 141.600,189.171 141.600 C 188.936 141.600,188.486 141.857,188.171 142.171 C 187.857 142.486,187.600 142.936,187.600 143.171 C 187.600 143.407,187.407 143.600,187.171 143.600 C 186.936 143.600,186.486 143.857,186.171 144.171 C 185.857 144.486,185.600 144.936,185.600 145.171 C 185.600 145.407,185.330 145.600,185.000 145.600 C 184.670 145.600,184.400 145.744,184.400 145.920 C 184.400 146.096,182.780 147.893,180.800 149.913 C 177.768 153.006,177.198 153.792,177.189 154.893 C 177.171 156.904,160.213 174.169,158.642 173.775 C 157.989 173.611,157.600 173.679,157.600 173.957 C 157.600 174.200,157.330 174.400,157.000 174.400 C 156.670 174.400,156.400 174.593,156.400 174.829 C 156.400 175.064,156.143 175.514,155.829 175.829 C 155.514 176.143,155.064 176.400,154.829 176.400 C 154.593 176.400,154.400 176.593,154.400 176.829 C 154.400 177.064,154.143 177.514,153.829 177.829 C 153.514 178.143,153.064 178.400,152.829 178.400 C 152.593 178.400,152.400 178.593,152.400 178.829 C 152.400 179.064,152.143 179.514,151.829 179.829 C 151.514 180.143,151.064 180.400,150.829 180.400 C 150.593 180.400,150.400 180.584,150.400 180.810 C 150.400 181.035,149.320 182.277,148.000 183.568 C 146.571 184.966,145.600 186.257,145.600 186.758 C 145.600 187.221,145.395 187.600,145.144 187.600 C 144.543 187.600,143.629 188.828,143.613 189.657 C 143.606 190.019,143.330 190.418,143.000 190.545 C 142.623 190.689,142.400 191.301,142.400 192.187 C 142.400 192.964,142.220 193.600,142.000 193.600 C 141.780 193.600,141.600 194.481,141.600 195.557 C 141.600 196.928,141.420 197.583,141.000 197.745 C 140.522 197.928,140.400 198.791,140.400 202.000 C 140.400 205.209,140.522 206.072,141.000 206.255 C 141.420 206.417,141.600 207.072,141.600 208.443 C 141.600 209.519,141.780 210.400,142.000 210.400 C 142.220 210.400,142.400 211.036,142.400 211.813 C 142.400 212.699,142.623 213.311,143.000 213.455 C 143.330 213.582,143.606 213.981,143.613 214.343 C 143.629 215.172,144.543 216.400,145.144 216.400 C 145.395 216.400,145.600 216.784,145.600 217.253 C 145.600 217.722,146.230 218.700,147.000 219.426 C 147.770 220.152,148.400 220.938,148.400 221.173 C 148.400 221.408,148.593 221.600,148.829 221.600 C 149.382 221.600,150.400 222.618,150.400 223.171 C 150.400 223.407,150.593 223.600,150.829 223.600 C 151.382 223.600,152.400 224.618,152.400 225.171 C 152.400 225.407,152.593 225.600,152.829 225.600 C 153.382 225.600,154.400 226.618,154.400 227.171 C 154.400 227.407,154.593 227.600,154.829 227.600 C 155.382 227.600,156.400 228.618,156.400 229.171 C 156.400 229.407,156.593 229.600,156.829 229.600 C 157.382 229.600,158.400 230.618,158.400 231.171 C 158.400 231.407,158.593 231.600,158.829 231.600 C 159.382 231.600,160.400 232.618,160.400 233.171 C 160.400 233.407,160.841 233.600,161.381 233.600 C 162.241 233.600,164.800 230.771,164.800 229.820 C 164.800 229.176,174.470 214.406,176.381 212.130 C 176.598 211.872,177.655 210.342,178.729 208.730 C 180.711 205.757,180.757 205.609,181.818 198.651 C 181.948 197.799,182.201 196.809,182.381 196.451 C 182.560 196.093,182.953 195.264,183.253 194.610 C 183.554 193.955,186.230 190.910,189.200 187.843 C 198.689 178.043,198.834 177.913,199.977 178.137 C 200.947 178.327,203.568 176.104,203.592 175.071 C 203.603 174.594,204.670 173.600,205.171 173.600 C 205.407 173.600,205.600 173.330,205.600 173.000 C 205.600 172.670,205.780 172.400,206.000 172.400 C 206.220 172.400,206.400 171.950,206.400 171.400 C 206.400 170.850,206.593 170.400,206.829 170.400 C 207.471 170.400,208.400 169.345,208.400 168.616 C 208.400 168.263,208.670 167.871,209.000 167.745 C 209.330 167.618,209.600 167.264,209.600 166.957 C 209.600 166.651,209.780 166.400,210.000 166.400 C 210.220 166.400,210.400 165.950,210.400 165.400 C 210.400 164.850,210.628 164.400,210.906 164.400 C 211.184 164.400,211.728 163.725,212.114 162.900 C 212.501 162.075,213.160 160.860,213.580 160.200 C 213.999 159.540,214.355 158.704,214.371 158.343 C 214.387 157.981,214.670 157.582,215.000 157.455 C 215.330 157.329,215.600 156.780,215.600 156.236 C 215.600 155.692,215.780 155.136,216.000 155.000 C 216.220 154.864,216.400 154.223,216.400 153.576 C 216.400 152.797,216.603 152.400,217.000 152.400 C 217.373 152.400,217.600 152.022,217.600 151.400 C 217.600 150.850,217.780 150.400,218.000 150.400 C 218.220 150.400,218.400 149.789,218.400 149.043 C 218.400 148.205,218.630 147.597,219.000 147.455 C 219.377 147.311,219.600 146.699,219.600 145.813 C 219.600 145.036,219.780 144.400,220.000 144.400 C 220.220 144.400,220.400 143.789,220.400 143.043 C 220.400 142.205,220.630 141.597,221.000 141.455 C 221.411 141.298,221.600 140.655,221.600 139.413 C 221.600 138.416,221.780 137.600,222.000 137.600 C 222.220 137.600,222.400 136.719,222.400 135.643 C 222.400 134.272,222.580 133.617,223.000 133.455 C 223.442 133.286,223.600 132.588,223.600 130.813 C 223.600 129.471,223.778 128.400,224.000 128.400 C 224.231 128.400,224.400 127.148,224.400 125.443 C 224.400 123.183,224.542 122.431,225.000 122.255 C 225.492 122.066,225.600 121.055,225.600 116.613 C 225.600 113.271,225.753 111.200,226.000 111.200 C 226.229 111.200,226.400 110.000,226.400 108.400 L 226.400 105.600 225.000 105.600 C 224.230 105.600,223.600 105.780,223.600 106.000 M199.637 224.916 C 198.916 225.262,187.286 236.736,184.194 240.152 C 183.971 240.398,182.126 242.355,180.094 244.500 C 175.694 249.146,175.707 249.058,179.000 252.303 C 180.430 253.712,181.600 254.953,181.600 255.061 C 181.600 255.428,182.741 256.400,183.171 256.400 C 183.407 256.400,183.600 256.593,183.600 256.829 C 183.600 257.382,184.618 258.400,185.171 258.400 C 185.407 258.400,185.600 258.593,185.600 258.829 C 185.600 259.382,186.618 260.400,187.171 260.400 C 187.407 260.400,187.600 260.593,187.600 260.829 C 187.600 261.382,188.618 262.400,189.171 262.400 C 189.407 262.400,189.600 262.593,189.600 262.829 C 189.600 263.382,190.618 264.400,191.171 264.400 C 191.407 264.400,191.600 264.593,191.600 264.829 C 191.600 265.382,192.618 266.400,193.171 266.400 C 193.407 266.400,193.600 266.593,193.600 266.829 C 193.600 267.382,194.618 268.400,195.171 268.400 C 195.407 268.400,195.600 268.593,195.600 268.829 C 195.600 269.382,196.618 270.400,197.171 270.400 C 197.407 270.400,197.600 270.593,197.600 270.829 C 197.600 271.382,198.618 272.400,199.171 272.400 C 199.407 272.400,199.600 272.593,199.600 272.829 C 199.600 273.382,200.618 274.400,201.171 274.400 C 201.407 274.400,201.600 274.593,201.600 274.829 C 201.600 275.382,202.618 276.400,203.171 276.400 C 203.407 276.400,203.600 276.593,203.600 276.829 C 203.600 277.382,204.618 278.400,205.171 278.400 C 205.407 278.400,205.600 278.593,205.600 278.829 C 205.600 279.382,206.618 280.400,207.171 280.400 C 207.407 280.400,207.600 280.593,207.600 280.829 C 207.600 281.382,208.618 282.400,209.171 282.400 C 209.407 282.400,209.600 282.593,209.600 282.829 C 209.600 283.382,210.618 284.400,211.171 284.400 C 211.407 284.400,211.600 284.593,211.600 284.829 C 211.600 285.382,212.618 286.400,213.171 286.400 C 213.407 286.400,213.600 286.580,213.600 286.800 C 213.600 287.020,214.298 287.943,215.150 288.850 C 219.009 292.958,219.600 293.610,219.600 293.756 C 219.600 294.690,226.095 300.400,227.158 300.400 L 228.400 300.400 228.400 295.624 C 228.400 292.871,228.231 290.742,228.000 290.600 C 227.780 290.464,227.600 289.026,227.600 287.405 C 227.600 285.318,227.425 284.282,227.000 283.857 C 226.612 283.469,226.400 282.479,226.400 281.052 C 226.400 279.839,226.220 278.736,226.000 278.600 C 225.780 278.464,225.600 277.548,225.600 276.564 C 225.600 275.343,225.410 274.702,225.000 274.545 C 224.580 274.383,224.400 273.728,224.400 272.357 C 224.400 271.281,224.220 270.400,224.000 270.400 C 223.780 270.400,223.600 269.584,223.600 268.587 C 223.600 267.345,223.411 266.702,223.000 266.545 C 222.630 266.403,222.400 265.795,222.400 264.957 C 222.400 264.211,222.220 263.600,222.000 263.600 C 221.780 263.600,221.600 262.964,221.600 262.187 C 221.600 261.301,221.377 260.689,221.000 260.545 C 220.630 260.403,220.400 259.795,220.400 258.957 C 220.400 258.211,220.220 257.600,220.000 257.600 C 219.780 257.600,219.600 257.082,219.600 256.449 C 219.600 255.816,219.330 255.074,219.000 254.800 C 218.670 254.526,218.400 253.874,218.400 253.351 C 218.400 252.828,218.220 252.400,218.000 252.400 C 217.780 252.400,217.600 251.972,217.600 251.449 C 217.600 250.926,217.330 250.274,217.000 250.000 C 216.670 249.726,216.400 249.074,216.400 248.551 C 216.400 248.028,216.220 247.600,216.000 247.600 C 215.780 247.600,215.600 247.234,215.600 246.787 C 215.600 246.341,215.330 245.871,215.000 245.745 C 214.670 245.618,214.400 245.084,214.400 244.557 C 214.400 244.031,214.240 243.600,214.043 243.600 C 213.847 243.600,213.574 243.150,213.436 242.600 C 213.298 242.050,213.008 241.600,212.792 241.600 C 212.577 241.600,212.400 241.330,212.400 241.000 C 212.400 240.670,212.220 240.400,212.000 240.400 C 211.780 240.400,211.600 239.950,211.600 239.400 C 211.600 238.778,211.373 238.400,211.000 238.400 C 210.670 238.400,210.394 238.085,210.387 237.700 C 210.372 236.835,209.471 235.600,208.856 235.600 C 208.605 235.600,208.400 235.150,208.400 234.600 C 208.400 234.050,208.220 233.600,208.000 233.600 C 207.780 233.600,207.600 233.330,207.600 233.000 C 207.600 232.670,207.330 232.400,207.000 232.400 C 206.670 232.400,206.394 232.085,206.387 231.700 C 206.372 230.835,205.471 229.600,204.856 229.600 C 204.605 229.600,204.400 229.412,204.400 229.183 C 204.400 228.791,204.087 228.338,202.900 227.015 C 202.625 226.708,202.400 226.356,202.400 226.233 C 202.400 225.913,201.064 224.395,200.811 224.427 C 200.695 224.442,200.167 224.662,199.637 224.916 " stroke="none" fill="#f39424" fill-rule="evenodd"></path><path id="path1" d="M270.884 91.028 C 270.508 91.446,269.368 91.600,266.664 91.600 C 264.255 91.600,262.772 91.775,262.421 92.100 C 261.984 92.506,261.942 92.488,262.200 92.000 C 262.458 91.512,262.416 91.494,261.979 91.900 C 261.676 92.181,260.420 92.400,259.107 92.400 C 257.403 92.400,256.713 92.562,256.545 93.000 C 256.389 93.406,255.753 93.600,254.581 93.600 C 253.627 93.600,252.736 93.780,252.600 94.000 C 252.464 94.220,251.548 94.400,250.564 94.400 C 249.343 94.400,248.702 94.590,248.545 95.000 C 248.403 95.370,247.795 95.600,246.957 95.600 C 246.211 95.600,245.600 95.780,245.600 96.000 C 245.600 96.220,244.979 96.400,244.220 96.400 C 243.423 96.400,242.701 96.648,242.511 96.987 C 242.331 97.309,241.614 97.617,240.919 97.670 C 240.224 97.723,239.744 97.909,239.851 98.083 C 239.959 98.257,239.497 98.400,238.824 98.400 C 238.003 98.400,237.600 98.597,237.600 99.000 C 237.600 99.374,237.222 99.600,236.595 99.600 C 235.483 99.600,233.975 100.326,233.480 101.100 C 233.304 101.375,232.674 101.606,232.080 101.613 C 230.896 101.627,229.600 102.427,229.600 103.144 C 229.600 103.395,229.321 103.600,228.979 103.600 C 228.146 103.600,228.213 110.156,229.055 110.998 C 229.921 111.864,229.852 136.218,228.982 136.552 C 227.872 136.977,228.337 142.163,229.500 142.328 C 229.995 142.398,230.400 142.284,230.400 142.074 C 230.400 141.865,230.778 141.594,231.240 141.474 C 231.702 141.353,231.985 141.099,231.868 140.910 C 231.751 140.721,232.005 140.540,232.432 140.508 C 233.290 140.443,234.400 139.496,234.400 138.829 C 234.400 138.593,234.627 138.400,234.904 138.400 C 235.181 138.400,235.861 137.995,236.415 137.500 C 237.788 136.274,239.832 135.165,240.144 135.477 C 240.285 135.618,240.400 135.433,240.400 135.067 C 240.400 134.622,240.733 134.400,241.400 134.400 C 241.950 134.400,242.400 134.263,242.400 134.095 C 242.400 133.789,243.585 133.067,244.900 132.571 C 245.285 132.426,245.600 132.148,245.600 131.953 C 245.600 131.759,246.028 131.600,246.551 131.600 C 247.074 131.600,247.726 131.330,248.000 131.000 C 248.274 130.670,248.926 130.400,249.449 130.400 C 249.972 130.400,250.400 130.220,250.400 130.000 C 250.400 129.780,250.850 129.600,251.400 129.600 C 252.022 129.600,252.400 129.373,252.400 129.000 C 252.400 128.588,252.813 128.400,253.720 128.400 C 254.446 128.400,255.231 128.209,255.465 127.975 C 255.699 127.741,256.455 127.534,257.145 127.514 C 257.913 127.492,258.400 127.269,258.400 126.939 C 258.400 126.568,258.953 126.400,260.176 126.400 C 261.153 126.400,262.064 126.220,262.200 126.000 C 262.336 125.780,263.252 125.600,264.236 125.600 C 265.457 125.600,266.098 125.410,266.255 125.000 C 266.443 124.511,267.405 124.400,271.443 124.400 C 274.481 124.400,276.400 124.245,276.400 124.000 C 276.400 123.780,277.390 123.600,278.600 123.600 C 279.810 123.600,280.800 123.780,280.800 124.000 C 280.800 124.245,282.733 124.400,285.800 124.400 C 289.501 124.400,290.774 124.526,290.700 124.884 C 290.633 125.208,291.395 125.417,293.000 125.516 C 294.320 125.597,295.571 125.829,295.780 126.032 C 295.989 126.234,296.732 126.400,297.431 126.400 C 298.130 126.400,298.926 126.670,299.200 127.000 C 299.474 127.330,300.295 127.600,301.025 127.600 C 301.755 127.600,302.464 127.780,302.600 128.000 C 302.736 128.220,303.447 128.400,304.181 128.400 C 304.997 128.400,305.604 128.633,305.745 129.000 C 305.871 129.330,306.341 129.600,306.787 129.600 C 307.234 129.600,307.600 129.780,307.600 130.000 C 307.600 130.220,308.050 130.400,308.600 130.400 C 309.239 130.400,309.600 130.625,309.600 131.024 C 309.600 131.367,309.748 131.556,309.929 131.444 C 310.109 131.332,310.760 131.502,311.374 131.820 C 311.989 132.139,312.741 132.400,313.046 132.400 C 313.351 132.400,313.600 132.670,313.600 133.000 C 313.600 133.373,313.978 133.600,314.600 133.600 C 315.150 133.600,315.600 133.780,315.600 134.000 C 315.600 134.220,315.827 134.400,316.104 134.400 C 316.381 134.400,317.093 134.850,317.687 135.400 C 318.280 135.950,319.133 136.400,319.583 136.400 C 320.043 136.400,320.400 136.662,320.400 137.000 C 320.400 137.330,320.670 137.600,321.000 137.600 C 321.330 137.600,321.600 137.780,321.600 138.000 C 321.600 138.220,321.870 138.400,322.200 138.400 C 322.530 138.400,322.800 138.539,322.800 138.709 C 322.800 138.879,323.430 139.357,324.200 139.772 C 324.970 140.187,325.600 140.690,325.600 140.892 C 325.600 141.476,326.686 142.400,327.371 142.400 C 327.717 142.400,328.000 142.670,328.000 143.000 C 328.000 143.330,328.148 143.600,328.328 143.600 C 328.954 143.600,333.600 147.909,333.600 148.490 C 333.600 148.687,333.784 148.733,334.010 148.594 C 334.235 148.455,334.394 148.489,334.363 148.670 C 334.216 149.512,334.451 150.000,335.000 150.000 C 335.330 150.000,335.600 150.283,335.600 150.629 C 335.600 151.312,336.524 152.400,337.104 152.400 C 337.302 152.400,337.720 152.895,338.032 153.500 C 338.345 154.105,338.780 154.819,339.000 155.086 C 339.220 155.353,339.625 155.841,339.900 156.169 C 340.175 156.498,340.400 156.935,340.400 157.140 C 340.400 157.346,340.670 157.618,341.000 157.745 C 341.330 157.871,341.600 158.258,341.600 158.605 C 341.600 158.951,342.050 159.720,342.600 160.313 C 343.150 160.907,343.600 161.619,343.600 161.896 C 343.600 162.173,343.780 162.400,344.000 162.400 C 344.220 162.400,344.400 162.850,344.400 163.400 C 344.400 164.022,344.627 164.400,345.000 164.400 C 345.340 164.400,345.600 164.759,345.600 165.229 C 345.600 165.684,345.872 166.329,346.204 166.661 C 346.536 166.993,346.704 167.431,346.578 167.635 C 346.452 167.839,346.631 168.114,346.975 168.246 C 347.319 168.378,347.600 168.916,347.600 169.443 C 347.600 169.969,347.780 170.400,348.000 170.400 C 348.220 170.400,348.400 170.751,348.400 171.180 C 348.400 171.609,348.646 172.104,348.946 172.280 C 349.455 172.578,349.689 173.365,350.266 176.731 C 350.392 177.463,350.743 178.157,351.047 178.274 C 351.389 178.404,351.600 179.090,351.600 180.066 C 351.600 181.018,351.759 181.549,352.000 181.400 C 352.239 181.252,352.420 181.806,352.450 182.776 C 352.524 185.165,352.588 185.410,353.118 185.300 C 353.454 185.230,353.600 185.976,353.600 187.767 C 353.600 189.178,353.776 190.393,353.990 190.467 C 354.211 190.542,354.401 192.658,354.429 195.327 C 354.466 198.983,354.604 200.104,355.039 200.270 C 355.804 200.564,355.834 205.425,355.072 205.717 C 354.684 205.866,354.519 207.173,354.448 210.660 C 354.395 213.267,354.183 215.460,353.976 215.533 C 353.769 215.607,353.600 216.712,353.600 217.991 C 353.600 219.687,353.438 220.377,353.000 220.545 C 352.589 220.702,352.400 221.345,352.400 222.587 C 352.400 223.584,352.220 224.400,352.000 224.400 C 351.780 224.400,351.600 225.101,351.600 225.957 C 351.600 226.972,351.391 227.595,351.000 227.745 C 350.649 227.879,350.400 228.479,350.400 229.187 C 350.400 229.854,350.220 230.400,350.000 230.400 C 349.780 230.400,349.600 231.101,349.600 231.957 C 349.600 232.972,349.391 233.595,349.000 233.745 C 348.670 233.871,348.400 234.330,348.400 234.764 C 348.400 235.198,348.220 235.664,348.000 235.800 C 347.780 235.936,347.600 236.377,347.600 236.781 C 347.600 237.184,347.319 237.622,346.975 237.754 C 346.631 237.886,346.452 238.161,346.578 238.365 C 346.704 238.569,346.536 239.007,346.204 239.339 C 345.872 239.671,345.600 240.316,345.600 240.771 C 345.600 241.241,345.340 241.600,345.000 241.600 C 344.627 241.600,344.400 241.978,344.400 242.600 C 344.400 243.150,344.220 243.600,344.000 243.600 C 343.780 243.600,343.600 243.793,343.600 244.029 C 343.600 244.264,343.375 244.708,343.100 245.015 C 341.853 246.405,341.600 246.807,341.600 247.396 C 341.600 247.742,341.330 248.129,341.000 248.255 C 340.670 248.382,340.400 248.654,340.400 248.860 C 340.400 249.065,340.028 249.631,339.574 250.117 C 339.119 250.603,338.481 251.559,338.156 252.242 C 337.830 252.925,337.122 253.721,336.582 254.010 C 336.042 254.299,335.600 254.865,335.600 255.268 C 335.600 255.670,335.407 256.000,335.171 256.000 C 334.686 256.000,333.803 256.799,333.623 257.400 C 333.410 258.114,329.815 261.579,329.276 261.590 C 328.988 261.595,328.864 261.780,329.000 262.000 C 329.136 262.220,328.967 262.400,328.624 262.400 C 328.281 262.400,328.000 262.670,328.000 263.000 C 328.000 263.339,327.642 263.600,327.176 263.600 C 326.723 263.600,326.464 263.780,326.600 264.000 C 326.736 264.220,326.567 264.400,326.224 264.400 C 325.881 264.400,325.600 264.670,325.600 265.000 C 325.600 265.330,325.439 265.600,325.242 265.600 C 325.045 265.600,324.460 266.047,323.942 266.593 C 323.424 267.139,322.685 267.589,322.300 267.593 C 321.915 267.597,321.600 267.780,321.600 268.000 C 321.600 268.220,321.330 268.400,321.000 268.400 C 320.670 268.400,320.400 268.670,320.400 269.000 C 320.400 269.338,320.043 269.600,319.583 269.600 C 319.133 269.600,318.280 270.050,317.687 270.600 C 317.093 271.150,316.381 271.600,316.104 271.600 C 315.827 271.600,315.600 271.780,315.600 272.000 C 315.600 272.220,315.150 272.400,314.600 272.400 C 313.978 272.400,313.600 272.627,313.600 273.000 C 313.600 273.373,313.222 273.600,312.600 273.600 C 312.050 273.600,311.600 273.780,311.600 274.000 C 311.600 274.220,311.150 274.400,310.600 274.400 C 309.978 274.400,309.600 274.627,309.600 275.000 C 309.600 275.373,309.222 275.600,308.600 275.600 C 308.050 275.600,307.600 275.780,307.600 276.000 C 307.600 276.220,307.163 276.400,306.629 276.400 C 306.094 276.400,305.387 276.670,305.057 277.000 C 304.727 277.330,304.095 277.600,303.652 277.600 C 303.209 277.600,302.736 277.780,302.600 278.000 C 302.464 278.220,301.755 278.400,301.025 278.400 C 300.295 278.400,299.474 278.670,299.200 279.000 C 298.914 279.345,298.042 279.600,297.151 279.600 C 296.298 279.600,295.600 279.780,295.600 280.000 C 295.600 280.222,294.529 280.400,293.187 280.400 C 291.412 280.400,290.714 280.558,290.545 281.000 C 290.358 281.487,289.419 281.600,285.581 281.600 C 282.857 281.600,280.742 281.770,280.600 282.000 C 280.301 282.484,277.200 282.541,277.200 282.063 C 277.200 281.877,274.905 281.689,272.100 281.645 C 268.179 281.583,266.897 281.430,266.556 280.982 C 266.280 280.620,265.410 280.400,264.256 280.400 C 263.235 280.400,262.400 280.220,262.400 280.000 C 262.400 279.780,261.500 279.600,260.400 279.600 C 259.036 279.600,258.400 279.436,258.400 279.085 C 258.400 278.796,257.855 278.529,257.155 278.475 C 256.471 278.423,255.583 278.205,255.182 277.990 C 254.781 277.776,253.991 277.600,253.426 277.600 C 252.856 277.600,252.400 277.371,252.400 277.085 C 252.400 276.802,251.998 276.540,251.506 276.503 C 251.014 276.466,250.549 276.248,250.473 276.018 C 250.396 275.788,249.920 275.600,249.416 275.600 C 248.911 275.600,248.274 275.330,248.000 275.000 C 247.726 274.670,247.136 274.400,246.689 274.400 C 246.241 274.400,245.286 273.950,244.564 273.400 C 243.843 272.850,242.961 272.400,242.603 272.400 C 242.245 272.400,242.067 272.216,242.206 271.990 C 242.345 271.765,242.311 271.606,242.130 271.637 C 241.153 271.807,240.400 271.530,240.400 271.000 C 240.400 270.670,240.085 270.400,239.700 270.400 C 239.315 270.400,238.292 269.770,237.427 269.000 C 236.562 268.230,235.527 267.600,235.127 267.600 C 234.727 267.600,234.400 267.330,234.400 267.000 C 234.400 266.670,234.119 266.400,233.776 266.400 C 233.433 266.400,233.264 266.220,233.400 266.000 C 233.536 265.780,233.266 265.600,232.800 265.600 C 232.334 265.600,232.056 265.433,232.182 265.229 C 232.308 265.025,232.012 264.731,231.524 264.576 C 230.489 264.248,229.600 263.440,229.600 262.829 C 229.600 262.593,229.373 262.400,229.095 262.400 C 228.817 262.400,228.252 261.950,227.839 261.400 C 226.440 259.537,225.600 260.062,225.600 262.800 C 225.600 264.133,225.778 265.200,226.000 265.200 C 226.220 265.200,226.400 265.901,226.400 266.757 C 226.400 267.772,226.609 268.395,227.000 268.545 C 227.446 268.716,227.600 269.425,227.600 271.307 C 227.600 272.700,227.768 274.011,227.973 274.220 C 228.178 274.429,228.400 275.829,228.465 277.332 C 228.535 278.924,228.785 280.176,229.065 280.332 C 229.559 280.609,229.715 282.638,230.331 296.800 C 230.508 300.870,230.686 304.206,230.726 304.213 C 230.767 304.220,231.295 304.265,231.900 304.314 C 232.505 304.362,233.200 304.671,233.444 305.001 C 233.688 305.330,234.173 305.600,234.520 305.600 C 234.868 305.600,235.264 305.780,235.400 306.000 C 235.536 306.220,236.087 306.400,236.624 306.400 C 237.225 306.400,237.600 306.631,237.600 307.000 C 237.600 307.369,237.975 307.600,238.576 307.600 C 239.113 307.600,239.664 307.780,239.800 308.000 C 239.936 308.220,240.557 308.400,241.181 308.400 C 241.819 308.400,242.415 308.662,242.545 309.000 C 242.689 309.377,243.301 309.600,244.187 309.600 C 244.964 309.600,245.600 309.780,245.600 310.000 C 245.600 310.220,246.211 310.400,246.957 310.400 C 247.795 310.400,248.403 310.630,248.545 311.000 C 248.702 311.411,249.345 311.600,250.587 311.600 C 251.584 311.600,252.400 311.780,252.400 312.000 C 252.400 312.220,253.281 312.400,254.357 312.400 C 255.633 312.400,256.387 312.588,256.522 312.941 C 256.664 313.312,257.590 313.505,259.465 313.556 C 260.969 313.596,262.260 313.803,262.333 314.015 C 262.407 314.228,264.304 314.400,266.584 314.400 C 269.830 314.400,270.812 314.532,271.221 315.025 C 272.057 316.033,286.799 315.770,286.174 314.758 C 286.049 314.555,287.947 314.400,290.553 314.400 C 293.188 314.400,295.258 314.229,295.400 314.000 C 295.536 313.780,296.618 313.600,297.804 313.600 C 299.207 313.600,300.072 313.409,300.280 313.052 C 300.456 312.751,301.590 312.392,302.800 312.256 C 306.717 311.813,307.963 311.526,308.435 310.958 C 308.702 310.636,309.639 310.400,310.649 310.400 C 311.612 310.400,312.400 310.220,312.400 310.000 C 312.400 309.780,312.837 309.600,313.371 309.600 C 313.906 309.600,314.613 309.330,314.943 309.000 C 315.273 308.670,316.006 308.400,316.571 308.400 C 317.137 308.400,317.600 308.240,317.600 308.045 C 317.600 307.849,318.230 307.571,319.000 307.426 C 319.770 307.282,320.400 306.992,320.400 306.782 C 320.400 306.572,320.835 306.400,321.367 306.400 C 321.898 306.400,322.396 306.212,322.473 305.982 C 322.549 305.752,323.014 305.534,323.506 305.497 C 323.998 305.460,324.400 305.198,324.400 304.915 C 324.400 304.632,324.835 304.400,325.367 304.400 C 325.898 304.400,326.396 304.212,326.473 303.982 C 326.549 303.752,327.014 303.534,327.506 303.497 C 327.998 303.460,328.400 303.198,328.400 302.915 C 328.400 302.632,328.850 302.400,329.400 302.400 C 329.950 302.400,330.400 302.220,330.400 302.000 C 330.400 301.780,330.670 301.600,331.000 301.600 C 331.330 301.600,331.600 301.409,331.600 301.176 C 331.600 300.943,331.780 300.864,332.000 301.000 C 332.220 301.136,332.400 301.057,332.400 300.824 C 332.400 300.591,332.670 300.400,333.000 300.400 C 333.330 300.400,333.600 300.220,333.600 300.000 C 333.600 299.780,333.966 299.600,334.413 299.600 C 334.859 299.600,335.329 299.330,335.455 299.000 C 335.582 298.670,335.914 298.400,336.194 298.400 C 336.473 298.400,336.924 298.132,337.196 297.804 C 337.468 297.477,337.850 297.307,338.045 297.428 C 338.240 297.549,338.400 297.367,338.400 297.024 C 338.400 296.681,338.670 296.400,339.000 296.400 C 339.330 296.400,339.600 296.220,339.600 296.000 C 339.600 295.780,339.896 295.600,340.257 295.600 C 340.618 295.600,341.396 295.105,341.986 294.500 C 342.576 293.895,343.806 292.950,344.719 292.400 C 345.632 291.850,346.383 291.175,346.389 290.900 C 346.395 290.625,346.593 290.400,346.829 290.400 C 347.382 290.400,348.400 289.382,348.400 288.829 C 348.400 288.593,348.627 288.400,348.905 288.400 C 349.183 288.400,349.748 287.950,350.161 287.400 C 350.574 286.850,351.169 286.400,351.482 286.400 C 352.262 286.400,356.400 282.206,356.400 281.416 C 356.400 281.066,356.850 280.609,357.400 280.400 C 357.950 280.191,358.403 279.790,358.407 279.510 C 358.411 279.229,358.861 278.576,359.407 278.058 C 359.953 277.540,360.400 276.985,360.400 276.826 C 360.400 276.666,360.850 276.294,361.400 276.000 C 361.950 275.706,362.400 275.225,362.400 274.932 C 362.400 274.640,362.591 274.400,362.824 274.400 C 363.057 274.400,363.136 274.220,363.000 274.000 C 362.864 273.780,362.943 273.600,363.176 273.600 C 363.409 273.600,363.600 273.373,363.600 273.095 C 363.600 272.817,364.050 272.252,364.600 271.839 C 365.150 271.426,365.600 270.833,365.600 270.520 C 365.600 270.208,365.784 270.067,366.010 270.206 C 366.235 270.345,366.394 270.311,366.363 270.130 C 366.208 269.240,366.448 268.400,366.856 268.400 C 367.471 268.400,368.372 267.165,368.387 266.300 C 368.394 265.915,368.670 265.600,369.000 265.600 C 369.330 265.600,369.600 265.330,369.600 265.000 C 369.600 264.670,369.780 264.400,370.000 264.400 C 370.220 264.400,370.400 263.950,370.400 263.400 C 370.400 262.850,370.632 262.400,370.915 262.400 C 371.198 262.400,371.460 261.998,371.497 261.506 C 371.534 261.014,371.752 260.549,371.982 260.473 C 372.212 260.396,372.400 260.078,372.400 259.767 C 372.400 259.455,372.535 259.199,372.700 259.197 C 373.090 259.194,374.400 256.892,374.400 256.210 C 374.400 255.922,374.670 255.582,375.000 255.455 C 375.330 255.329,375.600 254.870,375.600 254.436 C 375.600 254.002,375.780 253.536,376.000 253.400 C 376.220 253.264,376.400 252.791,376.400 252.348 C 376.400 251.905,376.670 251.273,377.000 250.943 C 377.330 250.613,377.600 249.906,377.600 249.371 C 377.600 248.837,377.780 248.400,378.000 248.400 C 378.220 248.400,378.400 247.950,378.400 247.400 C 378.400 246.778,378.627 246.400,379.000 246.400 C 379.417 246.400,379.600 245.980,379.600 245.024 C 379.600 244.267,379.780 243.536,380.000 243.400 C 380.220 243.264,380.400 242.791,380.400 242.348 C 380.400 241.905,380.670 241.273,381.000 240.943 C 381.330 240.613,381.600 239.826,381.600 239.195 C 381.600 238.564,381.780 237.936,382.000 237.800 C 382.220 237.664,382.400 236.843,382.400 235.976 C 382.400 234.927,382.579 234.400,382.935 234.400 C 383.296 234.400,383.493 233.787,383.542 232.513 C 383.581 231.476,383.790 230.450,384.007 230.233 C 384.223 230.017,384.400 228.965,384.400 227.896 C 384.400 226.827,384.561 226.052,384.758 226.174 C 385.267 226.488,385.456 225.744,385.565 223.000 C 385.618 221.680,385.827 220.540,386.031 220.467 C 386.234 220.393,386.400 218.134,386.400 215.447 C 386.400 212.091,386.557 210.391,386.900 210.021 C 387.306 209.584,387.287 209.537,386.800 209.771 C 386.365 209.980,386.380 209.911,386.856 209.518 C 387.614 208.892,387.884 196.400,387.140 196.400 C 386.927 196.400,386.864 196.220,387.000 196.000 C 387.136 195.780,387.057 195.600,386.824 195.600 C 386.548 195.600,386.400 193.862,386.400 190.633 C 386.400 187.879,386.232 185.607,386.022 185.533 C 385.815 185.460,385.604 184.258,385.555 182.862 C 385.504 181.393,385.241 180.099,384.933 179.790 C 384.640 179.497,384.400 178.560,384.400 177.709 C 384.400 176.857,384.230 175.989,384.022 175.780 C 383.815 175.571,383.601 174.545,383.548 173.500 C 383.484 172.247,383.272 171.600,382.925 171.600 C 382.580 171.600,382.400 171.058,382.400 170.024 C 382.400 169.157,382.220 168.336,382.000 168.200 C 381.780 168.064,381.600 167.436,381.600 166.805 C 381.600 166.174,381.330 165.387,381.000 165.057 C 380.670 164.727,380.400 164.095,380.400 163.652 C 380.400 163.209,380.220 162.736,380.000 162.600 C 379.780 162.464,379.600 161.733,379.600 160.976 C 379.600 160.020,379.417 159.600,379.000 159.600 C 378.627 159.600,378.400 159.222,378.400 158.600 C 378.400 158.050,378.220 157.600,378.000 157.600 C 377.780 157.600,377.600 157.169,377.600 156.643 C 377.600 156.116,377.330 155.582,377.000 155.455 C 376.653 155.322,376.400 154.724,376.400 154.036 C 376.400 153.382,376.220 152.736,376.000 152.600 C 375.780 152.464,375.600 151.998,375.600 151.564 C 375.600 151.130,375.330 150.671,375.000 150.545 C 374.670 150.418,374.394 150.019,374.387 149.657 C 374.371 148.828,373.457 147.600,372.856 147.600 C 372.605 147.600,372.400 147.150,372.400 146.600 C 372.400 146.050,372.220 145.600,372.000 145.600 C 371.780 145.600,371.600 145.150,371.600 144.600 C 371.600 143.978,371.373 143.600,371.000 143.600 C 370.470 143.600,370.193 142.847,370.363 141.870 C 370.394 141.689,370.235 141.655,370.010 141.794 C 369.781 141.936,369.600 141.684,369.600 141.224 C 369.600 140.758,369.339 140.400,369.000 140.400 C 368.670 140.400,368.394 140.085,368.387 139.700 C 368.372 138.835,367.471 137.600,366.856 137.600 C 366.605 137.600,366.400 137.216,366.400 136.747 C 366.400 136.278,365.770 135.300,365.000 134.574 C 364.230 133.848,363.600 132.966,363.600 132.614 C 363.600 132.263,363.330 131.871,363.000 131.745 C 362.670 131.618,362.400 131.341,362.400 131.129 C 362.400 130.610,361.362 129.600,360.829 129.600 C 360.593 129.600,360.400 129.439,360.400 129.242 C 360.400 129.045,359.953 128.460,359.407 127.942 C 358.861 127.424,358.411 126.807,358.407 126.572 C 358.403 126.336,356.825 124.564,354.900 122.634 C 350.030 117.750,349.857 117.600,349.086 117.600 C 348.709 117.600,348.400 117.360,348.400 117.068 C 348.400 116.775,347.950 116.294,347.400 116.000 C 346.850 115.706,346.400 115.302,346.400 115.104 C 346.400 114.605,345.350 113.600,344.829 113.600 C 344.593 113.600,344.400 113.409,344.400 113.176 C 344.400 112.943,344.220 112.864,344.000 113.000 C 343.780 113.136,343.600 113.057,343.600 112.824 C 343.600 112.591,343.423 112.400,343.207 112.400 C 342.991 112.400,342.166 111.770,341.373 111.000 C 340.580 110.230,339.587 109.600,339.166 109.600 C 338.739 109.600,338.400 109.324,338.400 108.976 C 338.400 108.633,338.240 108.451,338.045 108.572 C 337.850 108.693,337.468 108.523,337.196 108.196 C 336.924 107.868,336.473 107.600,336.194 107.600 C 335.914 107.600,335.582 107.330,335.455 107.000 C 335.329 106.670,334.985 106.400,334.692 106.400 C 333.764 106.400,332.006 105.420,332.003 104.900 C 332.001 104.625,331.651 104.400,331.224 104.400 C 330.797 104.400,330.336 104.220,330.200 104.000 C 330.064 103.780,329.603 103.600,329.176 103.600 C 328.749 103.600,328.400 103.368,328.400 103.085 C 328.400 102.802,327.998 102.540,327.506 102.503 C 327.014 102.466,326.549 102.248,326.473 102.018 C 326.396 101.788,325.898 101.600,325.367 101.600 C 324.774 101.600,324.400 101.368,324.400 101.000 C 324.400 100.631,324.025 100.400,323.424 100.400 C 322.887 100.400,322.336 100.220,322.200 100.000 C 322.064 99.780,321.623 99.600,321.219 99.600 C 320.816 99.600,320.382 99.330,320.255 99.000 C 320.121 98.649,319.521 98.400,318.813 98.400 C 318.146 98.400,317.600 98.220,317.600 98.000 C 317.600 97.780,317.060 97.600,316.400 97.600 C 315.740 97.600,315.200 97.428,315.200 97.218 C 315.200 97.008,314.570 96.718,313.800 96.574 C 313.030 96.429,312.400 96.151,312.400 95.955 C 312.400 95.760,311.702 95.600,310.849 95.600 C 309.958 95.600,309.086 95.345,308.800 95.000 C 308.526 94.670,307.705 94.400,306.975 94.400 C 306.245 94.400,305.536 94.220,305.400 94.000 C 305.264 93.780,304.168 93.600,302.964 93.600 C 301.387 93.600,300.710 93.432,300.545 93.000 C 300.376 92.561,299.684 92.400,297.957 92.400 C 296.652 92.400,295.600 92.221,295.600 92.000 C 295.600 91.757,293.814 91.600,291.043 91.600 C 287.427 91.600,286.440 91.480,286.263 91.019 C 285.937 90.169,271.651 90.178,270.884 91.028 M88.400 110.000 C 88.400 110.223,87.310 110.400,85.931 110.400 C 84.345 110.400,83.236 110.606,82.827 110.976 C 82.464 111.304,81.213 111.591,79.914 111.643 C 78.661 111.694,77.729 111.885,77.842 112.068 C 77.955 112.250,77.311 112.400,76.411 112.400 C 75.326 112.400,74.697 112.602,74.545 113.000 C 74.403 113.370,73.795 113.600,72.957 113.600 C 72.211 113.600,71.600 113.780,71.600 114.000 C 71.600 114.220,70.964 114.400,70.187 114.400 C 69.301 114.400,68.689 114.623,68.545 115.000 C 68.415 115.338,67.819 115.600,67.181 115.600 C 66.557 115.600,65.936 115.780,65.800 116.000 C 65.664 116.220,65.113 116.400,64.576 116.400 C 63.975 116.400,63.600 116.631,63.600 117.000 C 63.600 117.373,63.222 117.600,62.600 117.600 C 62.050 117.600,61.600 117.780,61.600 118.000 C 61.600 118.220,61.150 118.400,60.600 118.400 C 59.978 118.400,59.600 118.627,59.600 119.000 C 59.600 119.373,59.222 119.600,58.600 119.600 C 58.050 119.600,57.600 119.760,57.600 119.957 C 57.600 120.153,57.150 120.426,56.600 120.564 C 56.050 120.702,55.600 120.992,55.600 121.208 C 55.600 121.423,55.330 121.600,55.000 121.600 C 54.670 121.600,54.400 121.780,54.400 122.000 C 54.400 122.220,54.085 122.403,53.700 122.407 C 53.315 122.411,52.576 122.861,52.058 123.407 C 51.540 123.953,50.775 124.400,50.358 124.400 C 49.941 124.400,49.600 124.670,49.600 125.000 C 49.600 125.330,49.330 125.600,49.000 125.600 C 48.670 125.600,48.400 125.780,48.400 126.000 C 48.400 126.220,48.173 126.400,47.896 126.400 C 47.619 126.400,46.907 126.850,46.313 127.400 C 45.720 127.950,45.047 128.400,44.817 128.400 C 44.588 128.400,44.400 128.593,44.400 128.829 C 44.400 129.350,43.395 130.400,42.895 130.400 C 42.696 130.400,41.753 131.120,40.800 132.000 C 39.847 132.880,38.994 133.600,38.905 133.600 C 38.565 133.600,37.600 134.762,37.600 135.171 C 37.600 135.407,37.345 135.600,37.034 135.600 C 36.722 135.600,36.228 136.140,35.936 136.800 C 35.644 137.460,35.256 138.000,35.074 138.000 C 34.700 138.000,33.564 139.058,33.586 139.386 C 33.641 140.208,33.530 140.400,33.000 140.400 C 32.670 140.400,32.400 140.592,32.400 140.827 C 32.400 141.062,31.770 141.848,31.000 142.574 C 30.230 143.300,29.600 144.278,29.600 144.747 C 29.600 145.239,29.346 145.600,29.000 145.600 C 28.670 145.600,28.400 145.881,28.400 146.224 C 28.400 146.567,28.220 146.736,28.000 146.600 C 27.645 146.381,27.405 147.222,27.563 148.130 C 27.594 148.311,27.448 148.353,27.239 148.224 C 27.029 148.094,26.743 148.351,26.602 148.794 C 26.461 149.237,26.199 149.600,26.020 149.600 C 25.840 149.600,25.579 149.915,25.440 150.300 C 24.966 151.611,24.129 152.796,23.864 152.531 C 23.719 152.386,23.600 152.727,23.600 153.291 C 23.600 153.854,23.330 154.418,23.000 154.545 C 22.670 154.671,22.400 155.141,22.400 155.587 C 22.400 156.034,22.220 156.400,22.000 156.400 C 21.780 156.400,21.600 156.766,21.600 157.213 C 21.600 157.659,21.330 158.129,21.000 158.255 C 20.670 158.382,20.400 158.916,20.400 159.443 C 20.400 159.969,20.220 160.400,20.000 160.400 C 19.780 160.400,19.600 160.831,19.600 161.357 C 19.600 161.884,19.330 162.418,19.000 162.545 C 18.670 162.671,18.400 163.241,18.400 163.811 C 18.400 164.400,18.227 164.741,18.000 164.600 C 17.759 164.451,17.600 164.982,17.600 165.934 C 17.600 166.970,17.393 167.594,17.000 167.745 C 16.670 167.871,16.400 168.330,16.400 168.764 C 16.400 169.198,16.220 169.664,16.000 169.800 C 15.780 169.936,15.600 170.652,15.600 171.390 C 15.600 172.129,15.397 172.801,15.149 172.884 C 14.674 173.042,14.071 175.652,13.736 179.000 C 13.627 180.100,13.299 181.187,13.008 181.415 C 11.961 182.237,10.998 214.358,11.990 215.350 C 12.215 215.575,12.400 216.782,12.400 218.031 C 12.400 219.562,12.596 220.464,13.000 220.800 C 13.385 221.120,13.600 222.005,13.600 223.273 C 13.600 224.487,13.754 225.152,14.000 225.000 C 14.244 224.849,14.400 225.463,14.400 226.576 C 14.400 227.931,14.554 228.400,15.000 228.400 C 15.417 228.400,15.600 228.820,15.600 229.776 C 15.600 230.533,15.780 231.264,16.000 231.400 C 16.220 231.536,16.400 232.267,16.400 233.024 C 16.400 233.980,16.583 234.400,17.000 234.400 C 17.417 234.400,17.600 234.820,17.600 235.776 C 17.600 236.533,17.780 237.264,18.000 237.400 C 18.220 237.536,18.400 238.002,18.400 238.436 C 18.400 238.870,18.670 239.329,19.000 239.455 C 19.330 239.582,19.600 240.116,19.600 240.643 C 19.600 241.169,19.780 241.600,20.000 241.600 C 20.220 241.600,20.400 241.966,20.400 242.413 C 20.400 242.859,20.670 243.329,21.000 243.455 C 21.330 243.582,21.600 244.116,21.600 244.643 C 21.600 245.169,21.780 245.600,22.000 245.600 C 22.220 245.600,22.400 245.966,22.400 246.413 C 22.400 246.859,22.670 247.329,23.000 247.455 C 23.330 247.582,23.600 248.037,23.600 248.466 C 23.600 248.896,23.780 249.136,24.000 249.000 C 24.220 248.864,24.400 249.123,24.400 249.576 C 24.400 250.042,24.661 250.400,25.000 250.400 C 25.373 250.400,25.600 250.778,25.600 251.400 C 25.600 251.950,25.780 252.400,26.000 252.400 C 26.220 252.400,26.400 252.670,26.400 253.000 C 26.400 253.330,26.670 253.600,27.000 253.600 C 27.330 253.600,27.606 253.915,27.613 254.300 C 27.628 255.165,28.529 256.400,29.144 256.400 C 29.395 256.400,29.600 256.655,29.600 256.967 C 29.600 257.278,29.790 257.597,30.022 257.674 C 30.254 257.751,30.503 258.171,30.575 258.607 C 30.647 259.043,30.907 259.355,31.153 259.300 C 31.399 259.245,31.600 259.470,31.600 259.800 C 31.600 260.130,31.780 260.400,32.000 260.400 C 32.220 260.400,32.400 260.670,32.400 261.000 C 32.400 261.330,32.593 261.600,32.829 261.600 C 33.382 261.600,34.400 262.618,34.400 263.171 C 34.400 263.407,34.670 263.600,35.000 263.600 C 35.330 263.600,35.600 263.876,35.600 264.213 C 35.600 264.549,35.870 264.929,36.200 265.055 C 36.530 265.182,36.800 265.566,36.800 265.909 C 36.800 266.253,36.902 266.431,37.028 266.306 C 37.153 266.180,37.986 266.870,38.879 267.839 C 39.771 268.808,40.672 269.600,40.880 269.600 C 41.392 269.600,42.400 270.642,42.400 271.171 C 42.400 271.407,42.670 271.600,43.000 271.600 C 43.330 271.600,43.600 271.780,43.600 272.000 C 43.600 272.220,43.870 272.400,44.200 272.400 C 44.530 272.400,44.755 272.625,44.700 272.900 C 44.645 273.175,44.825 273.355,45.100 273.300 C 45.375 273.245,45.600 273.470,45.600 273.800 C 45.600 274.133,45.956 274.400,46.400 274.400 C 47.254 274.400,48.890 275.776,48.500 276.167 C 48.372 276.295,48.567 276.400,48.933 276.400 C 49.300 276.400,49.600 276.591,49.600 276.824 C 49.600 277.057,49.780 277.136,50.000 277.000 C 50.220 276.864,50.400 276.943,50.400 277.176 C 50.400 277.409,50.670 277.600,51.000 277.600 C 51.330 277.600,51.600 277.780,51.600 278.000 C 51.600 278.220,51.793 278.400,52.029 278.400 C 52.264 278.400,52.708 278.625,53.015 278.900 C 54.438 280.177,54.821 280.400,55.583 280.400 C 56.043 280.400,56.400 280.663,56.400 281.000 C 56.400 281.330,56.649 281.600,56.954 281.600 C 57.259 281.600,58.011 281.861,58.626 282.180 C 59.240 282.498,59.918 282.650,60.133 282.518 C 60.348 282.385,60.404 282.470,60.258 282.707 C 59.958 283.191,62.111 284.400,63.274 284.400 C 63.687 284.400,64.129 284.670,64.255 285.000 C 64.382 285.330,64.916 285.600,65.443 285.600 C 65.969 285.600,66.400 285.780,66.400 286.000 C 66.400 286.220,66.940 286.400,67.600 286.400 C 68.260 286.400,68.800 286.572,68.800 286.782 C 68.800 286.992,69.430 287.282,70.200 287.426 C 70.970 287.571,71.600 287.849,71.600 288.045 C 71.600 288.240,72.305 288.400,73.167 288.400 C 74.028 288.400,74.801 288.603,74.884 288.851 C 75.045 289.334,77.576 289.892,81.300 290.265 C 82.656 290.401,83.600 290.688,83.600 290.963 C 83.600 291.270,84.666 291.469,86.700 291.543 C 88.405 291.604,89.971 291.822,90.180 292.027 C 90.711 292.548,109.322 292.521,109.000 292.000 C 108.842 291.745,110.067 291.600,112.389 291.600 C 115.252 291.600,116.074 291.472,116.255 291.000 C 116.419 290.573,117.085 290.400,118.563 290.400 C 119.705 290.400,120.811 290.229,121.021 290.019 C 121.230 289.810,122.076 289.593,122.901 289.537 C 123.810 289.476,124.400 289.232,124.400 288.918 C 124.400 288.572,124.989 288.400,126.176 288.400 C 127.153 288.400,128.064 288.220,128.200 288.000 C 128.336 287.780,128.887 287.600,129.424 287.600 C 130.025 287.600,130.400 287.369,130.400 287.000 C 130.400 286.567,130.844 286.400,132.000 286.400 C 132.880 286.400,133.600 286.220,133.600 286.000 C 133.600 285.780,133.966 285.600,134.413 285.600 C 134.859 285.600,135.329 285.330,135.455 285.000 C 135.582 284.670,136.116 284.400,136.643 284.400 C 137.169 284.400,137.600 284.220,137.600 284.000 C 137.600 283.780,138.050 283.600,138.600 283.600 C 139.222 283.600,139.600 283.373,139.600 283.000 C 139.600 282.670,139.915 282.394,140.300 282.387 C 141.971 282.357,142.400 281.470,142.400 278.043 C 142.400 275.633,142.545 274.719,142.952 274.563 C 143.363 274.405,143.521 273.356,143.570 270.478 C 143.606 268.347,143.807 266.433,144.018 266.222 C 144.228 266.012,144.400 264.638,144.400 263.169 C 144.400 261.283,144.576 260.352,145.000 260.000 C 145.410 259.660,145.600 258.750,145.600 257.127 C 145.600 255.646,145.750 254.846,146.000 255.000 C 146.250 255.154,146.400 254.337,146.400 252.824 C 146.400 251.017,146.542 250.400,146.958 250.400 C 147.297 250.400,147.602 249.812,147.735 248.900 C 148.197 245.743,148.526 244.589,149.054 244.280 C 149.354 244.104,149.600 243.339,149.600 242.580 C 149.600 241.821,149.802 241.200,150.049 241.200 C 150.342 241.200,150.307 240.964,149.949 240.523 C 149.481 239.947,149.483 239.897,149.962 240.185 C 150.343 240.415,150.432 240.375,150.238 240.062 C 149.521 238.901,146.400 240.416,146.400 241.926 C 146.400 242.187,146.220 242.400,146.000 242.400 C 145.780 242.400,145.600 242.670,145.600 243.000 C 145.600 243.330,145.407 243.600,145.171 243.600 C 144.618 243.600,143.600 244.618,143.600 245.171 C 143.600 245.407,143.407 245.600,143.171 245.600 C 142.618 245.600,141.600 246.618,141.600 247.171 C 141.600 247.407,141.407 247.600,141.171 247.600 C 140.618 247.600,139.600 248.618,139.600 249.171 C 139.600 249.407,139.330 249.600,139.000 249.600 C 138.670 249.600,138.400 249.780,138.400 250.000 C 138.400 250.220,138.065 250.400,137.656 250.400 C 137.247 250.400,136.574 250.850,136.161 251.400 C 135.748 251.950,135.183 252.400,134.905 252.400 C 134.627 252.400,134.400 252.670,134.400 253.000 C 134.400 253.357,134.033 253.600,133.495 253.600 C 132.996 253.600,132.253 254.049,131.839 254.600 C 131.426 255.150,130.753 255.600,130.344 255.600 C 129.935 255.600,129.600 255.780,129.600 256.000 C 129.600 256.220,129.150 256.400,128.600 256.400 C 127.978 256.400,127.600 256.627,127.600 257.000 C 127.600 257.373,127.222 257.600,126.600 257.600 C 126.050 257.600,125.600 257.780,125.600 258.000 C 125.600 258.220,125.150 258.400,124.600 258.400 C 123.978 258.400,123.600 258.627,123.600 259.000 C 123.600 259.368,123.226 259.600,122.633 259.600 C 122.102 259.600,121.607 259.766,121.533 259.969 C 121.460 260.173,120.770 260.417,120.000 260.512 C 119.228 260.607,118.645 260.890,118.700 261.142 C 118.762 261.426,118.193 261.600,117.200 261.600 C 116.320 261.600,115.600 261.780,115.600 262.000 C 115.600 262.220,114.722 262.400,113.649 262.400 C 112.403 262.400,111.518 262.617,111.200 263.000 C 110.842 263.431,109.895 263.600,107.831 263.600 C 106.088 263.600,104.748 263.796,104.421 264.100 C 103.983 264.507,103.945 264.488,104.218 264.000 C 104.503 263.491,104.455 263.480,103.903 263.927 C 102.927 264.718,88.400 263.892,88.400 263.045 C 88.400 262.734,87.693 262.514,86.500 262.453 C 85.455 262.400,84.540 262.187,84.467 261.979 C 84.393 261.770,83.738 261.600,83.009 261.600 C 82.202 261.600,81.596 261.366,81.455 261.000 C 81.311 260.623,80.699 260.400,79.813 260.400 C 79.036 260.400,78.400 260.220,78.400 260.000 C 78.400 259.780,77.969 259.600,77.443 259.600 C 76.916 259.600,76.382 259.330,76.255 259.000 C 76.129 258.670,75.670 258.400,75.236 258.400 C 74.802 258.400,74.336 258.220,74.200 258.000 C 74.064 257.780,73.483 257.600,72.910 257.600 C 72.336 257.600,71.980 257.487,72.118 257.349 C 72.391 257.075,69.726 255.600,68.958 255.600 C 68.698 255.600,68.382 255.330,68.255 255.000 C 68.129 254.670,67.739 254.400,67.389 254.400 C 67.039 254.400,66.864 254.220,67.000 254.000 C 67.136 253.780,66.877 253.600,66.424 253.600 C 65.971 253.600,65.600 253.364,65.600 253.075 C 65.600 252.786,64.970 252.302,64.200 252.000 C 63.430 251.698,62.487 251.034,62.105 250.525 C 61.723 250.016,61.273 249.600,61.105 249.600 C 60.616 249.600,59.244 248.090,59.500 247.833 C 59.628 247.705,59.433 247.600,59.067 247.600 C 58.700 247.600,58.400 247.407,58.400 247.171 C 58.400 246.618,57.382 245.600,56.829 245.600 C 56.593 245.600,56.400 245.407,56.400 245.171 C 56.400 244.618,55.382 243.600,54.829 243.600 C 54.593 243.600,54.400 243.407,54.400 243.171 C 54.400 242.618,53.382 241.600,52.829 241.600 C 52.593 241.600,52.400 241.265,52.400 240.856 C 52.400 240.447,51.950 239.774,51.400 239.361 C 50.850 238.948,50.400 238.383,50.400 238.105 C 50.400 237.827,50.220 237.600,50.000 237.600 C 49.780 237.600,49.600 237.339,49.600 237.021 C 49.600 236.702,49.150 235.956,48.600 235.362 C 48.050 234.769,47.600 233.944,47.600 233.529 C 47.600 233.114,47.330 232.671,47.000 232.545 C 46.670 232.418,46.400 231.873,46.400 231.334 C 46.400 230.782,46.225 230.461,46.000 230.600 C 45.773 230.741,45.600 230.400,45.600 229.811 C 45.600 229.241,45.330 228.671,45.000 228.545 C 44.670 228.418,44.400 227.884,44.400 227.357 C 44.400 226.831,44.220 226.400,44.000 226.400 C 43.780 226.400,43.600 225.972,43.600 225.449 C 43.600 224.926,43.330 224.274,43.000 224.000 C 42.670 223.726,42.400 223.074,42.400 222.551 C 42.400 222.028,42.220 221.600,42.000 221.600 C 41.780 221.600,41.600 220.964,41.600 220.187 C 41.600 219.301,41.377 218.689,41.000 218.545 C 40.578 218.383,40.400 217.725,40.400 216.334 C 40.400 215.115,40.246 214.448,40.000 214.600 C 39.752 214.753,39.577 213.890,39.539 212.324 C 39.453 208.770,39.420 208.588,38.881 208.700 C 38.091 208.864,38.206 193.859,39.000 193.200 C 39.428 192.845,39.600 191.906,39.600 189.927 C 39.600 188.180,39.748 187.244,40.000 187.400 C 40.248 187.553,40.400 186.804,40.400 185.424 C 40.400 183.963,40.557 183.234,40.858 183.300 C 41.110 183.355,41.392 182.772,41.487 182.000 C 41.581 181.230,41.825 180.429,42.029 180.220 C 42.233 180.011,42.400 179.355,42.400 178.763 C 42.400 178.170,42.670 177.582,43.000 177.455 C 43.330 177.329,43.600 176.971,43.600 176.661 C 43.600 175.976,44.555 173.829,45.584 172.200 C 46.000 171.540,46.355 170.704,46.371 170.343 C 46.387 169.981,46.670 169.582,47.000 169.455 C 47.330 169.329,47.600 168.874,47.600 168.446 C 47.600 168.017,47.788 167.604,48.018 167.527 C 48.248 167.451,48.465 166.998,48.501 166.522 C 48.537 166.045,48.709 165.744,48.883 165.851 C 49.057 165.959,49.200 165.858,49.200 165.627 C 49.200 165.396,49.740 164.691,50.400 164.060 C 51.060 163.429,51.600 162.618,51.600 162.257 C 51.600 161.896,51.780 161.600,52.000 161.600 C 52.220 161.600,52.400 161.330,52.400 161.000 C 52.400 160.670,52.593 160.400,52.829 160.400 C 53.377 160.400,54.170 159.598,54.510 158.700 C 54.656 158.315,54.965 158.000,55.197 158.000 C 55.430 158.000,55.800 157.525,56.021 156.945 C 56.242 156.364,56.529 155.995,56.659 156.125 C 56.926 156.393,58.000 155.433,58.000 154.926 C 58.000 154.744,58.540 154.356,59.200 154.064 C 59.860 153.772,60.400 153.278,60.400 152.966 C 60.400 152.655,60.681 152.400,61.024 152.400 C 61.367 152.400,61.536 152.220,61.400 152.000 C 61.264 151.780,61.433 151.600,61.776 151.600 C 62.119 151.600,62.400 151.330,62.400 151.000 C 62.400 150.670,62.670 150.400,63.000 150.400 C 63.330 150.400,63.600 150.220,63.600 150.000 C 63.600 149.780,63.935 149.600,64.344 149.600 C 64.753 149.600,65.426 149.150,65.839 148.600 C 66.252 148.050,66.913 147.600,67.307 147.600 C 67.702 147.600,68.129 147.330,68.255 147.000 C 68.382 146.670,68.736 146.400,69.043 146.400 C 69.349 146.400,69.600 146.220,69.600 146.000 C 69.600 145.780,69.848 145.600,70.151 145.600 C 70.454 145.600,70.926 145.330,71.200 145.000 C 71.474 144.670,72.137 144.400,72.673 144.400 C 73.220 144.400,73.539 144.225,73.400 144.000 C 73.259 143.773,73.600 143.600,74.189 143.600 C 74.759 143.600,75.329 143.330,75.455 143.000 C 75.582 142.670,76.106 142.400,76.619 142.400 C 77.133 142.400,77.664 142.220,77.800 142.000 C 77.936 141.780,78.577 141.600,79.224 141.600 C 80.003 141.600,80.400 141.397,80.400 141.000 C 80.400 140.565,80.847 140.400,82.024 140.400 C 83.004 140.400,83.549 140.242,83.400 140.000 C 83.248 139.753,83.933 139.600,85.189 139.600 C 86.630 139.600,87.292 139.425,87.455 139.000 C 87.629 138.548,88.358 138.400,90.419 138.400 C 91.923 138.400,93.264 138.220,93.400 138.000 C 93.548 137.760,96.204 137.600,100.024 137.600 C 104.008 137.600,106.400 137.750,106.400 138.000 C 106.400 138.231,107.652 138.400,109.357 138.400 C 111.617 138.400,112.369 138.542,112.545 139.000 C 112.702 139.411,113.345 139.600,114.587 139.600 C 115.584 139.600,116.400 139.780,116.400 140.000 C 116.400 140.220,117.120 140.400,118.000 140.400 C 119.156 140.400,119.600 140.567,119.600 141.000 C 119.600 141.373,119.978 141.600,120.600 141.600 C 121.150 141.600,121.600 141.780,121.600 142.000 C 121.600 142.220,122.146 142.400,122.813 142.400 C 123.521 142.400,124.121 142.649,124.255 143.000 C 124.382 143.330,124.916 143.600,125.443 143.600 C 125.969 143.600,126.400 143.780,126.400 144.000 C 126.400 144.220,126.766 144.400,127.213 144.400 C 127.659 144.400,128.129 144.670,128.255 145.000 C 128.382 145.330,128.736 145.600,129.043 145.600 C 129.349 145.600,129.600 145.780,129.600 146.000 C 129.600 146.220,130.050 146.400,130.600 146.400 C 131.239 146.400,131.600 146.625,131.600 147.024 C 131.600 147.367,131.760 147.549,131.955 147.428 C 132.150 147.307,132.532 147.477,132.804 147.804 C 133.076 148.132,133.527 148.400,133.806 148.400 C 134.086 148.400,134.418 148.670,134.545 149.000 C 134.671 149.330,135.061 149.600,135.411 149.600 C 135.790 149.600,135.932 149.787,135.762 150.062 C 135.586 150.346,135.652 150.415,135.932 150.242 C 136.188 150.084,136.913 150.497,137.581 151.180 C 138.236 151.851,138.882 152.400,139.015 152.400 C 139.148 152.400,139.527 152.670,139.857 153.000 C 140.377 153.520,140.533 153.524,141.029 153.029 C 141.700 152.357,141.826 148.400,141.176 148.400 C 140.943 148.400,140.864 148.220,141.000 148.000 C 141.136 147.780,141.057 147.600,140.824 147.600 C 140.079 147.600,140.253 128.542,141.000 128.255 C 141.851 127.929,141.892 119.600,141.043 119.600 C 140.736 119.600,140.382 119.330,140.255 119.000 C 140.129 118.670,139.659 118.400,139.213 118.400 C 138.766 118.400,138.400 118.220,138.400 118.000 C 138.400 117.780,137.950 117.600,137.400 117.600 C 136.850 117.600,136.400 117.428,136.400 117.218 C 136.400 117.008,135.768 116.718,134.996 116.573 C 134.223 116.428,133.493 116.150,133.372 115.955 C 133.251 115.760,132.823 115.600,132.419 115.600 C 132.016 115.600,131.582 115.330,131.455 115.000 C 131.312 114.626,130.702 114.400,129.836 114.400 C 129.072 114.400,128.336 114.220,128.200 114.000 C 128.064 113.780,127.443 113.600,126.819 113.600 C 126.181 113.600,125.585 113.338,125.455 113.000 C 125.304 112.606,124.680 112.400,123.636 112.400 C 122.762 112.400,121.936 112.220,121.800 112.000 C 121.664 111.780,120.683 111.600,119.619 111.600 C 118.269 111.600,117.616 111.419,117.455 111.000 C 117.281 110.546,116.546 110.400,114.436 110.400 C 112.902 110.400,111.536 110.220,111.400 110.000 C 111.245 109.749,106.929 109.600,99.776 109.600 C 92.459 109.600,88.400 109.743,88.400 110.000 M142.837 122.155 C 142.161 122.970,142.372 130.000,143.073 130.000 C 143.483 130.000,143.600 131.185,143.600 135.320 C 143.600 138.246,143.773 140.813,143.985 141.025 C 144.197 141.237,144.404 142.533,144.445 143.905 C 144.499 145.696,144.672 146.400,145.060 146.400 C 145.441 146.400,145.600 146.987,145.600 148.400 C 145.600 149.500,145.780 150.400,146.000 150.400 C 146.220 150.400,146.400 151.107,146.400 151.971 C 146.400 152.836,146.670 153.813,147.000 154.143 C 147.330 154.473,147.600 155.306,147.600 155.995 C 147.600 156.728,147.766 157.145,148.000 157.000 C 148.234 156.856,148.400 157.267,148.400 157.989 C 148.400 158.719,148.646 159.319,149.000 159.455 C 149.330 159.582,149.600 160.106,149.600 160.619 C 149.600 161.133,149.766 161.655,149.969 161.781 C 150.172 161.906,150.457 162.549,150.602 163.208 C 150.747 163.867,151.030 164.305,151.233 164.180 C 151.435 164.055,151.600 164.313,151.600 164.753 C 151.600 165.193,151.780 165.664,152.000 165.800 C 152.220 165.936,152.400 166.397,152.400 166.824 C 152.400 167.251,152.670 167.600,153.000 167.600 C 153.330 167.600,153.606 167.915,153.613 168.300 C 153.628 169.165,154.529 170.400,155.144 170.400 C 155.395 170.400,155.600 170.586,155.600 170.813 C 155.600 173.106,158.841 173.780,160.526 171.837 C 160.926 171.377,164.741 167.483,169.003 163.185 C 176.344 155.783,177.017 154.904,176.265 153.700 C 176.093 153.425,176.066 153.200,176.205 153.200 C 176.344 153.200,176.187 152.930,175.857 152.600 C 175.527 152.270,175.060 152.000,174.819 152.000 C 174.578 152.000,174.209 151.550,174.000 151.000 C 173.791 150.450,173.345 150.000,173.010 150.000 C 172.674 150.000,172.400 149.770,172.400 149.488 C 172.400 149.206,171.770 148.382,171.000 147.656 C 170.230 146.929,169.600 146.170,169.600 145.968 C 169.600 145.765,169.330 145.600,169.000 145.600 C 168.670 145.600,168.400 145.407,168.400 145.171 C 168.400 144.936,168.143 144.486,167.829 144.171 C 167.514 143.857,167.064 143.600,166.829 143.600 C 166.593 143.600,166.400 143.407,166.400 143.171 C 166.400 142.936,166.143 142.486,165.829 142.171 C 165.514 141.857,165.064 141.600,164.829 141.600 C 164.593 141.600,164.400 141.407,164.400 141.171 C 164.400 140.936,164.143 140.486,163.829 140.171 C 163.514 139.857,163.064 139.600,162.829 139.600 C 162.593 139.600,162.400 139.330,162.400 139.000 C 162.400 138.670,162.175 138.445,161.900 138.500 C 161.625 138.555,161.445 138.375,161.500 138.100 C 161.555 137.825,161.330 137.600,161.000 137.600 C 160.670 137.600,160.400 137.407,160.400 137.171 C 160.400 136.936,160.143 136.486,159.829 136.171 C 159.514 135.857,159.064 135.600,158.829 135.600 C 158.593 135.600,158.400 135.330,158.400 135.000 C 158.400 134.670,158.256 134.400,158.081 134.400 C 157.723 134.400,154.400 131.291,154.400 130.957 C 154.400 130.576,153.270 129.600,152.829 129.600 C 152.593 129.600,152.400 129.407,152.400 129.171 C 152.400 128.936,152.143 128.486,151.829 128.171 C 151.514 127.857,151.064 127.600,150.829 127.600 C 150.593 127.600,150.400 127.407,150.400 127.171 C 150.400 126.650,149.395 125.600,148.896 125.600 C 148.698 125.600,148.294 125.150,148.000 124.600 C 147.706 124.050,147.225 123.600,146.932 123.600 C 146.640 123.600,146.399 123.375,146.397 123.100 C 146.390 121.997,143.586 121.253,142.837 122.155 M196.340 181.740 C 186.045 192.033,183.200 195.374,183.200 197.168 C 183.200 197.600,183.046 198.048,182.858 198.164 C 182.670 198.280,182.419 199.793,182.300 201.526 C 182.181 203.258,181.911 205.019,181.699 205.438 C 180.448 207.914,179.831 209.023,179.605 209.200 C 179.464 209.310,177.699 211.740,175.682 214.600 C 173.665 217.460,171.832 220.017,171.608 220.283 C 171.383 220.549,171.200 220.892,171.200 221.045 C 171.200 221.199,170.750 221.914,170.200 222.636 C 169.650 223.357,169.200 224.077,169.200 224.236 C 169.200 224.394,168.750 225.114,168.200 225.836 C 167.650 226.557,167.200 227.257,167.200 227.393 C 167.200 227.528,166.570 228.623,165.800 229.827 C 165.030 231.031,164.400 232.161,164.400 232.338 C 164.400 232.957,162.592 234.331,161.600 234.465 C 160.920 234.557,160.559 234.888,160.472 235.500 C 160.402 235.995,160.177 236.400,159.972 236.400 C 159.767 236.400,159.600 236.850,159.600 237.400 C 159.600 238.022,159.373 238.400,159.000 238.400 C 158.631 238.400,158.400 238.775,158.400 239.376 C 158.400 239.913,158.220 240.464,158.000 240.600 C 157.780 240.736,157.600 241.197,157.600 241.624 C 157.600 242.051,157.330 242.400,157.000 242.400 C 156.627 242.400,156.400 242.778,156.400 243.400 C 156.400 243.950,156.220 244.400,156.000 244.400 C 155.780 244.400,155.600 244.828,155.600 245.351 C 155.600 245.874,155.330 246.526,155.000 246.800 C 154.670 247.074,154.400 247.546,154.400 247.849 C 154.400 248.152,154.220 248.400,154.000 248.400 C 153.780 248.400,153.600 248.837,153.600 249.371 C 153.600 249.906,153.330 250.613,153.000 250.943 C 152.670 251.273,152.400 252.006,152.400 252.571 C 152.400 253.137,152.220 253.600,152.000 253.600 C 151.780 253.600,151.600 254.031,151.600 254.557 C 151.600 255.084,151.330 255.618,151.000 255.745 C 150.649 255.879,150.400 256.479,150.400 257.187 C 150.400 257.854,150.220 258.400,150.000 258.400 C 149.780 258.400,149.600 259.101,149.600 259.957 C 149.600 260.972,149.391 261.595,149.000 261.745 C 148.670 261.871,148.400 262.330,148.400 262.764 C 148.400 263.198,148.220 263.664,148.000 263.800 C 147.780 263.936,147.600 264.827,147.600 265.781 C 147.600 266.953,147.406 267.589,147.000 267.745 C 146.621 267.890,146.400 268.503,146.400 269.411 C 146.400 270.267,146.238 270.747,146.000 270.600 C 145.753 270.448,145.600 271.129,145.600 272.376 C 145.600 273.939,145.459 274.400,144.979 274.400 C 144.466 274.400,144.372 274.921,144.437 277.400 C 144.517 280.416,145.769 281.820,146.554 279.775 C 146.689 279.425,146.999 279.276,147.259 279.436 C 147.518 279.596,147.617 279.550,147.482 279.333 C 147.226 278.919,148.537 277.600,149.205 277.600 C 149.422 277.600,149.600 277.403,149.600 277.162 C 149.600 276.921,152.030 274.331,155.000 271.407 C 157.970 268.483,160.400 265.890,160.400 265.645 C 160.400 265.400,160.625 265.245,160.900 265.300 C 161.175 265.355,161.355 265.175,161.300 264.900 C 161.245 264.625,161.408 264.400,161.662 264.400 C 162.272 264.400,165.952 260.452,166.417 259.300 C 166.617 258.805,167.010 258.396,167.290 258.392 C 167.571 258.387,168.610 257.479,169.600 256.374 C 170.590 255.268,172.075 253.652,172.900 252.782 C 173.725 251.912,174.400 251.020,174.400 250.800 C 174.400 250.580,174.593 250.400,174.829 250.400 C 175.675 250.400,176.425 249.240,176.189 248.297 C 175.941 247.310,175.483 247.810,192.581 230.375 C 197.767 225.086,198.283 224.670,199.881 224.490 C 201.014 224.362,201.600 224.101,201.600 223.724 C 201.600 223.410,201.780 223.264,202.000 223.400 C 202.220 223.536,202.400 223.367,202.400 223.024 C 202.400 222.681,202.593 222.400,202.829 222.400 C 203.382 222.400,204.400 221.382,204.400 220.829 C 204.400 220.593,204.593 220.400,204.829 220.400 C 205.382 220.400,206.400 219.382,206.400 218.829 C 206.400 218.593,206.700 218.400,207.067 218.400 C 207.433 218.400,207.614 218.281,207.469 218.136 C 207.324 217.990,207.884 217.225,208.714 216.436 C 210.225 214.998,210.400 214.746,210.400 214.000 C 210.400 213.780,210.670 213.600,211.000 213.600 C 211.330 213.600,211.600 213.330,211.600 213.000 C 211.600 212.670,211.780 212.400,212.000 212.400 C 212.220 212.400,212.400 211.969,212.400 211.443 C 212.400 210.916,212.670 210.382,213.000 210.255 C 213.377 210.111,213.600 209.499,213.600 208.613 C 213.600 207.836,213.769 207.200,213.976 207.200 C 214.194 207.200,214.353 204.755,214.353 201.391 C 214.353 197.862,214.205 195.673,213.976 195.815 C 213.765 195.945,213.600 195.332,213.600 194.411 C 213.600 193.326,213.398 192.697,213.000 192.545 C 212.670 192.418,212.400 191.873,212.400 191.334 C 212.400 190.782,212.225 190.461,212.000 190.600 C 211.780 190.736,211.600 190.586,211.600 190.266 C 211.600 189.947,211.330 189.582,211.000 189.455 C 210.670 189.329,210.400 188.932,210.400 188.574 C 210.400 188.216,208.420 185.993,206.000 183.635 C 203.580 181.277,201.600 179.134,201.600 178.874 C 201.600 177.435,199.503 178.577,196.340 181.740 " stroke="none" fill="#04acdc" fill-rule="evenodd"></path><path id="path2" d="M166.992 165.700 L 163.400 169.400 167.100 165.808 C 170.536 162.472,170.982 162.000,170.692 162.000 C 170.632 162.000,168.967 163.665,166.992 165.700 M194.800 182.600 C 193.161 184.250,191.910 185.600,192.020 185.600 C 192.130 185.600,193.561 184.250,195.200 182.600 C 196.839 180.950,198.090 179.600,197.980 179.600 C 197.870 179.600,196.439 180.950,194.800 182.600 M182.800 240.600 C 181.161 242.250,179.910 243.600,180.020 243.600 C 180.130 243.600,181.561 242.250,183.200 240.600 C 184.839 238.950,186.090 237.600,185.980 237.600 C 185.870 237.600,184.439 238.950,182.800 240.600 " stroke="none" fill="#54a49c" fill-rule="evenodd"></path><path id="path3" d="M176.800 154.711 C 176.800 155.620,175.179 157.480,167.900 164.925 C 163.005 169.932,159.162 174.022,159.360 174.015 C 160.551 173.967,177.178 156.140,177.189 154.900 C 177.195 154.185,177.110 153.600,177.000 153.600 C 176.890 153.600,176.800 154.100,176.800 154.711 M196.744 180.133 C 190.026 186.816,183.729 193.573,183.253 194.610 C 182.953 195.264,182.560 196.093,182.381 196.451 C 182.201 196.809,181.948 197.799,181.818 198.651 C 180.757 205.609,180.711 205.757,178.729 208.730 C 177.655 210.342,176.598 211.872,176.381 212.130 C 174.376 214.518,165.998 227.398,164.391 230.563 C 164.066 231.203,163.323 232.238,162.740 232.863 C 162.156 233.489,161.889 234.000,162.146 234.000 C 162.636 234.000,164.367 231.530,166.224 228.181 C 167.807 225.327,174.902 214.721,177.600 211.175 C 180.932 206.796,182.000 204.130,182.000 200.188 C 182.000 198.582,182.956 195.979,184.271 194.000 C 185.818 191.673,198.113 179.125,199.400 178.559 C 200.396 178.121,200.455 178.029,199.744 178.016 C 199.231 178.006,198.029 178.854,196.744 180.133 M187.780 235.848 C 177.096 246.798,176.418 247.528,176.406 248.091 C 176.401 248.347,180.754 243.923,183.777 240.600 C 186.559 237.542,198.833 225.252,199.288 225.069 C 199.642 224.927,199.609 224.853,199.180 224.832 C 198.839 224.814,193.709 229.772,187.780 235.848 " stroke="none" fill="#849c7c" fill-rule="evenodd"></path><path id="path4" d="M168.376 163.842 C 159.681 172.616,160.000 172.284,160.000 172.561 C 160.000 172.681,163.494 169.229,167.764 164.890 C 172.034 160.550,175.664 156.865,175.831 156.700 C 175.997 156.535,176.047 156.400,175.943 156.400 C 175.838 156.400,172.433 159.749,168.376 163.842 M189.167 188.700 C 187.067 190.845,185.104 192.960,184.804 193.400 C 184.504 193.840,184.767 193.660,185.389 193.000 C 186.011 192.340,188.064 190.225,189.952 188.300 C 191.839 186.375,193.294 184.800,193.184 184.800 C 193.075 184.800,191.267 186.555,189.167 188.700 M182.120 201.200 C 182.120 202.410,182.195 202.905,182.287 202.300 C 182.378 201.695,182.378 200.705,182.287 200.100 C 182.195 199.495,182.120 199.990,182.120 201.200 M178.000 210.800 C 177.530 211.460,177.236 212.000,177.346 212.000 C 177.456 212.000,177.930 211.460,178.400 210.800 C 178.870 210.140,179.164 209.600,179.054 209.600 C 178.944 209.600,178.470 210.140,178.000 210.800 M176.000 213.600 C 175.530 214.260,175.236 214.800,175.346 214.800 C 175.456 214.800,175.930 214.260,176.400 213.600 C 176.870 212.940,177.164 212.400,177.054 212.400 C 176.944 212.400,176.470 212.940,176.000 213.600 M174.000 216.400 C 173.530 217.060,173.236 217.600,173.346 217.600 C 173.456 217.600,173.930 217.060,174.400 216.400 C 174.870 215.740,175.164 215.200,175.054 215.200 C 174.944 215.200,174.470 215.740,174.000 216.400 M170.092 222.229 C 169.597 222.983,169.272 223.600,169.369 223.600 C 169.647 223.600,171.304 221.171,171.139 221.006 C 171.057 220.924,170.586 221.474,170.092 222.229 M168.063 225.383 C 167.603 226.162,167.299 226.800,167.386 226.800 C 167.699 226.800,169.283 224.350,169.093 224.160 C 168.986 224.053,168.523 224.604,168.063 225.383 M196.656 226.158 C 196.026 226.841,193.507 229.470,191.058 232.000 C 187.367 235.813,187.594 235.627,192.385 230.916 C 195.564 227.789,198.083 225.161,197.982 225.074 C 197.882 224.987,197.285 225.475,196.656 226.158 M166.067 228.667 C 165.559 229.442,165.223 230.157,165.322 230.255 C 165.420 230.354,165.890 229.774,166.367 228.967 C 167.490 227.063,167.265 226.838,166.067 228.667 M163.670 232.837 C 163.395 233.277,162.772 233.797,162.285 233.993 C 161.713 234.223,161.623 234.358,162.030 234.375 C 162.680 234.401,164.680 232.546,164.353 232.220 C 164.252 232.119,163.945 232.396,163.670 232.837 M177.806 245.458 C 176.813 246.480,176.014 247.605,176.032 247.958 C 176.058 248.499,176.097 248.506,176.279 248.000 C 176.398 247.670,177.322 246.545,178.332 245.500 C 179.343 244.455,180.044 243.600,179.891 243.600 C 179.737 243.600,178.799 244.436,177.806 245.458 " stroke="none" fill="#4ca4a4" fill-rule="evenodd"></path></g></svg>